# xmcd
#
# Track frame offsets:
# 150
# 15003
# 25873
# 36597
# 46989
# 59934
# 71508
# 83338
# 94706
# 108281
# 122271
# 133981
#
# Disc length: 1934 seconds
#
#
# Revision: 3
# Processed by: cddbd v1.5.1PL2 Copyright (c) Steve Scherf et al.
# Submitted via: FreeRIP 2.60 
#
DISCID=95078c0c
DTITLE=Various Artist - Country Girls
DYEAR=1998
DGENRE=Country
TTITLE0=Jeannie C Riley - Harper Valley PTA
TTITLE1=Billie Jo Speares-If It Ain't Love
TTITLE2=Skeeter Davis-Gonna Get Along Without You Now
TTITLE3=Patsy Cline-Three Cigarettes in the Ashtray
TTITLE4=Lynn Anderson-Rose Garden
TTITLE5=Donna Fargo-Happiest Girl in the Whole USA
TTITLE6=Sandy Posey-Bring Hime Safely Home To Me
TTITLE7=Lynn Anderson-Listen to a Country Song
TTITLE8=Patsy Cline-Life's Railway to Heaven
TTITLE9=Barbara Fairchild-Teddy Bear Song
TTITLE10=Skeeter Davis-The End of the World
TTITLE11=Kitty Wells-It Wasn't God Who Made Honky Tonk Angels
EXTD=YEAR: 1998 ID3G: 2
EXTT0=
EXTT1=
EXTT2=
EXTT3=
EXTT4=
EXTT5=
EXTT6=
EXTT7=
EXTT8=
EXTT9=
EXTT10=
EXTT11=
PLAYORDER=
